<svg width="125" height="28" viewBox="0 0 125 28" fill="none" xmlns="http://www.w3.org/2000/svg">
<path d="M46.6696 22.7959H43.6363V15.3555L36.75 4.03297H39.4246C39.7162 4.03297 39.9554 4.11172 40.1362 4.26922C40.2879 4.40047 40.4192 4.56088 40.5271 4.75047L44.6862 11.8146C44.8612 12.1238 45.01 12.4155 45.1267 12.6838C45.1383 12.713 45.1529 12.7421 45.1646 12.7713C45.1792 12.7392 45.1908 12.7071 45.2054 12.6721C45.3192 12.4009 45.465 12.1121 45.6429 11.8117L49.7933 4.74755C49.8808 4.59005 50.0063 4.43547 50.1579 4.29547C50.3446 4.12047 50.5837 4.03297 50.8696 4.03297H53.5704L46.6696 15.3555V22.7959Z" fill="white"/>
<path d="M57.785 22.7959H54.9442V9.36172H57.785V22.7959ZM56.3762 7.50964C56.1167 7.50964 55.8687 7.45714 55.6412 7.35797C55.4196 7.2588 55.2183 7.12172 55.0462 6.94964C54.8742 6.77755 54.7371 6.5763 54.6379 6.35464C54.5358 6.12714 54.4862 5.88214 54.4862 5.62255C54.4862 5.36297 54.5358 5.11505 54.635 4.8788C54.7342 4.64547 54.8713 4.4413 55.0462 4.2663C55.2183 4.09422 55.4196 3.95422 55.6412 3.85797C56.0933 3.65672 56.6504 3.65672 57.1142 3.85797C57.3417 3.95714 57.5429 4.09422 57.7179 4.26922C57.89 4.4413 58.03 4.64547 58.1321 4.87589C58.2371 5.11214 58.2896 5.36297 58.2896 5.62255C58.2896 5.88505 58.2342 6.13297 58.1292 6.36047C58.0271 6.57922 57.8871 6.77755 57.715 6.94964C57.54 7.12464 57.3387 7.26172 57.1112 7.36089C56.8837 7.45714 56.6358 7.50964 56.3762 7.50964Z" fill="white"/>
<path d="M66.0567 23.0001C64.8463 23.0001 63.7233 22.7755 62.7229 22.3351C61.7225 21.8946 60.8562 21.2909 60.1475 20.5355L59.9958 20.3751L60.8212 19.0188C60.9233 18.8759 61.0312 18.7738 61.1596 18.6921C61.5125 18.4617 61.9529 18.4996 62.4371 18.9021C62.6587 19.0859 62.9387 19.2901 63.2683 19.5117C63.5921 19.7276 63.9917 19.9288 64.4554 20.1096C64.9046 20.2846 65.4704 20.3751 66.1325 20.3751C66.6808 20.3751 67.1737 20.2992 67.5967 20.1505C68.0138 20.0046 68.3696 19.7946 68.6583 19.5321C68.9412 19.2696 69.1629 18.9517 69.3175 18.5871C69.4721 18.2196 69.5479 17.7996 69.5479 17.3417C69.5479 16.8576 69.44 16.458 69.2271 16.1605C69.0025 15.8455 68.7021 15.5771 68.3346 15.3613C67.9496 15.1367 67.5004 14.9413 67.0046 14.7838C66.4854 14.6205 65.9517 14.4513 65.4062 14.2763C64.855 14.1013 64.3096 13.8942 63.7787 13.6638C63.2333 13.4246 62.7404 13.1067 62.3117 12.7246C61.8771 12.3367 61.5212 11.8438 61.2587 11.2634C60.9933 10.683 60.8592 9.95964 60.8592 9.11964C60.8592 8.44005 60.9933 7.77505 61.2558 7.14214C61.5183 6.50922 61.9062 5.93755 62.405 5.44755C62.9037 4.95755 63.5279 4.56089 64.2571 4.26922C64.9862 3.97755 65.8321 3.8288 66.7712 3.8288C67.8154 3.8288 68.7867 3.99797 69.6529 4.33047C70.5221 4.66589 71.295 5.15589 71.9454 5.7888L72.1 5.93755L71.3971 7.31422C71.3008 7.47464 71.1958 7.59714 71.0821 7.68172C70.8021 7.89172 70.3763 7.92089 69.9008 7.55922C69.7229 7.42505 69.4867 7.27047 69.2037 7.1013C68.9296 6.94089 68.5942 6.7863 68.2033 6.64922C67.8271 6.51797 67.3575 6.45089 66.8092 6.45089C66.2958 6.45089 65.8379 6.52089 65.4471 6.65797C65.0621 6.79214 64.7383 6.97589 64.4846 7.20339C64.2337 7.42797 64.0442 7.69339 63.9187 7.9938C63.7904 8.30005 63.7262 8.63547 63.7262 8.9913C63.7262 9.43172 63.8312 9.79922 64.0412 10.0792C64.2658 10.3796 64.5692 10.6421 64.9425 10.858C65.3333 11.0855 65.7854 11.2838 66.2842 11.4501C66.8062 11.6221 67.3371 11.803 67.8854 11.9896C68.4396 12.1792 68.985 12.3921 69.51 12.6284C70.0525 12.8705 70.5483 13.1826 70.9771 13.5559C71.4146 13.9351 71.7733 14.4076 72.0387 14.9559C72.3071 15.5101 72.4412 16.1926 72.4412 16.9859C72.4412 17.8142 72.2983 18.6017 72.0154 19.3309C71.7296 20.063 71.3096 20.7105 70.7612 21.253C70.2158 21.7955 69.5362 22.2271 68.7458 22.5363C67.9583 22.8426 67.0513 23.0001 66.0567 23.0001Z" fill="white"/>
<path d="M80.1383 22.9738C79.2167 22.9738 78.3533 22.8163 77.5746 22.5013C76.79 22.1863 76.1017 21.7196 75.53 21.1101C74.9583 20.5034 74.5092 19.748 74.1912 18.8584C73.8762 17.9776 73.7188 16.9538 73.7188 15.8163C73.7188 14.8917 73.8617 14.0138 74.1475 13.2059C74.4333 12.3951 74.8533 11.6805 75.3929 11.0826C75.9354 10.4846 76.6033 10.0063 77.3821 9.66505C78.1608 9.3238 79.0446 9.15172 80.01 9.15172C80.8121 9.15172 81.5646 9.2888 82.25 9.56005C82.9354 9.8313 83.5392 10.2309 84.0379 10.7442C84.5367 11.2576 84.9333 11.8992 85.2133 12.6488C85.4904 13.3926 85.6304 14.2501 85.6304 15.1921C85.6304 15.6209 85.5808 15.8892 85.47 16.0613C85.3796 16.2042 85.1871 16.3734 84.7933 16.3734H76.545C76.58 17.0296 76.6821 17.6101 76.8483 18.1059C77.0379 18.6659 77.3004 19.1384 77.6271 19.5088C77.9508 19.8734 78.3417 20.1534 78.7879 20.3313C79.24 20.5151 79.7592 20.6084 80.3279 20.6084C80.8617 20.6084 81.3254 20.5471 81.7046 20.4246C82.0983 20.2992 82.4396 20.1621 82.7196 20.0192C83.0054 19.8734 83.2446 19.7334 83.4342 19.6109C84.0292 19.2201 84.5075 19.3221 84.7787 19.7042L85.5487 20.7046L85.4 20.8855C85.1025 21.2442 84.7438 21.5621 84.3296 21.8276C83.9242 22.0871 83.4837 22.303 83.0229 22.4721C82.565 22.6384 82.0837 22.7638 81.5967 22.8484C81.1096 22.933 80.6196 22.9738 80.1383 22.9738ZM76.6646 14.3871H83.0112C82.9908 14.008 82.9237 13.6521 82.8187 13.3313C82.6875 12.9346 82.495 12.5905 82.2412 12.3046C81.9933 12.0217 81.6842 11.8001 81.3225 11.6426C80.9579 11.4851 80.535 11.4063 80.0625 11.4063C79.0417 11.4063 78.2687 11.6863 77.6942 12.2667C77.1808 12.7801 76.8338 13.4946 76.6646 14.3871Z" fill="white"/>
<path d="M96.3667 22.7959V14.323C96.3667 13.4246 96.1654 12.7246 95.7687 12.2434C95.3808 11.7738 94.7858 11.5434 93.9575 11.5434C93.3421 11.5434 92.7617 11.6921 92.2279 11.9896C91.7088 12.2784 91.2188 12.6692 90.7725 13.1534V22.7988H87.9317V9.36172H89.5679C90.0229 9.36172 90.3379 9.6038 90.4575 10.0471L90.4662 10.0851L90.5683 10.8813C91.035 10.438 91.5425 10.0646 92.085 9.76422C92.8142 9.36172 93.6658 9.15755 94.6167 9.15755C95.3546 9.15755 96.0196 9.28297 96.5912 9.53088C97.1687 9.78172 97.6558 10.1405 98.0437 10.6013C98.4258 11.0563 98.7204 11.6105 98.9187 12.2434C99.1142 12.8705 99.2104 13.5676 99.2104 14.323V22.7959H96.3667Z" fill="white"/>
<path d="M105.551 23.0001C104.621 23.0001 103.766 22.8455 103.008 22.5421C102.252 22.2388 101.599 21.8421 101.068 21.3667L100.887 21.2034L101.55 20.133C101.64 19.9871 101.751 19.8705 101.882 19.7859C102.165 19.6051 102.623 19.5788 103.055 19.8821C103.215 19.9959 103.416 20.1242 103.652 20.2642C103.874 20.3984 104.151 20.5209 104.475 20.6317C104.784 20.7396 105.187 20.7921 105.668 20.7921C106.073 20.7921 106.429 20.7396 106.727 20.6376C107.018 20.5355 107.263 20.4013 107.453 20.2321C107.643 20.0659 107.777 19.8792 107.864 19.6663C107.955 19.4505 108.001 19.2142 108.001 18.9663C108.001 18.6776 107.928 18.4501 107.782 18.2692C107.619 18.068 107.395 17.893 107.117 17.7471C106.82 17.5896 106.476 17.4526 106.097 17.3359C105.694 17.2134 105.283 17.0821 104.863 16.948C104.437 16.8109 104.014 16.6505 103.606 16.4755C103.18 16.2917 102.795 16.0584 102.463 15.7784C102.121 15.4926 101.841 15.1338 101.634 14.7138C101.424 14.2909 101.319 13.7746 101.319 13.1826C101.319 12.6517 101.43 12.1384 101.649 11.6484C101.867 11.1584 102.191 10.7238 102.611 10.3563C103.025 9.99172 103.539 9.69714 104.14 9.4813C104.735 9.26839 105.42 9.16047 106.178 9.16047C107.056 9.16047 107.858 9.30047 108.564 9.58047C109.267 9.86047 109.885 10.2484 110.402 10.7384L110.574 10.9017L109.947 11.9226C109.707 12.3513 109.212 12.4942 108.649 12.1676C108.494 12.0771 108.302 11.978 108.077 11.8671C107.861 11.7592 107.596 11.6601 107.29 11.5667C106.995 11.4792 106.639 11.4326 106.234 11.4326C105.887 11.4326 105.569 11.4763 105.295 11.5638C105.026 11.6513 104.793 11.768 104.606 11.9167C104.425 12.0596 104.285 12.2259 104.192 12.4096C104.099 12.5934 104.052 12.7888 104.052 13.0076C104.052 13.2671 104.122 13.4742 104.265 13.6405C104.431 13.8301 104.656 13.9992 104.933 14.1421C105.23 14.2938 105.572 14.4309 105.951 14.5476C106.35 14.6701 106.762 14.8042 107.182 14.9442C107.605 15.0842 108.025 15.2446 108.427 15.4167C108.847 15.5946 109.229 15.8221 109.562 16.0934C109.906 16.3705 110.183 16.7176 110.393 17.1171C110.603 17.5255 110.711 18.0155 110.711 18.5755C110.711 19.2026 110.597 19.7946 110.37 20.3313C110.142 20.8738 109.801 21.3492 109.355 21.743C108.914 22.1338 108.369 22.4459 107.736 22.6676C107.1 22.8892 106.368 23.0001 105.551 23.0001Z" fill="white"/>
<path d="M118.557 22.9738C117.635 22.9738 116.772 22.8163 115.993 22.5013C115.208 22.1863 114.52 21.7196 113.948 21.1101C113.377 20.5034 112.927 19.748 112.61 18.8584C112.295 17.9776 112.137 16.9538 112.137 15.8163C112.137 14.8917 112.28 14.0138 112.566 13.2059C112.852 12.3951 113.272 11.6805 113.811 11.0826C114.354 10.4846 115.022 10.0063 115.8 9.66505C116.579 9.3238 117.463 9.15172 118.428 9.15172C119.23 9.15172 119.983 9.2888 120.668 9.56005C121.354 9.8313 121.957 10.2309 122.456 10.7442C122.955 11.2576 123.352 11.8992 123.632 12.6488C123.909 13.3926 124.049 14.2501 124.049 15.1921C124.049 15.6209 123.999 15.8892 123.888 16.0613C123.798 16.2042 123.605 16.3734 123.212 16.3734H114.963C114.998 17.0296 115.1 17.6101 115.267 18.1059C115.456 18.6659 115.719 19.1384 116.045 19.5088C116.369 19.8734 116.76 20.1534 117.206 20.3313C117.658 20.5151 118.177 20.6084 118.746 20.6084C119.28 20.6084 119.744 20.5471 120.123 20.4246C120.517 20.2992 120.858 20.1621 121.138 20.0192C121.424 19.8734 121.663 19.7334 121.852 19.6109C122.447 19.2201 122.926 19.3221 123.197 19.7042L123.967 20.7046L123.818 20.8855C123.521 21.2442 123.162 21.5621 122.748 21.8276C122.342 22.0871 121.902 22.303 121.441 22.4721C120.983 22.6384 120.502 22.7638 120.015 22.8484C119.525 22.933 119.035 22.9738 118.557 22.9738ZM115.08 14.3871H121.427C121.406 14.008 121.339 13.6521 121.234 13.3313C121.103 12.9346 120.91 12.5905 120.657 12.3046C120.409 12.0217 120.1 11.8001 119.738 11.6426C119.373 11.4851 118.95 11.4063 118.478 11.4063C117.457 11.4063 116.684 11.6863 116.11 12.2667C115.596 12.7801 115.252 13.4946 115.08 14.3871Z" fill="white"/>
<path opacity="0.5" d="M5.25 23L5.25 28L11.25 23L5.25 23Z" fill="white"/>
<path d="M28 17.7502V5.24963H22.7788V17.7502L0 17.7502V23.0004L22.7788 23.0004C25.6624 23.0004 28 20.6498 28 17.7502Z" fill="url(#paint0_linear_1475_190061)"/>
<path d="M3.17985e-06 17.75L0 5.24949C0 2.34988 2.33721 -0.000732422 5.22031 -0.000732422H22.7498C25.6494 -0.000732422 28 2.34987 28 5.24949H5.22031L5.22032 17.75H3.17985e-06Z" fill="url(#paint1_linear_1475_190061)"/>
<defs>
<linearGradient id="paint0_linear_1475_190061" x1="23.317" y1="5.5086" x2="19.8483" y2="17.5896" gradientUnits="userSpaceOnUse">
<stop stop-color="white" stop-opacity="0.5"/>
<stop offset="1" stop-color="white"/>
</linearGradient>
<linearGradient id="paint1_linear_1475_190061" x1="2.62644" y1="18.6491" x2="3.93668" y2="5.85461" gradientUnits="userSpaceOnUse">
<stop stop-color="white" stop-opacity="0.5"/>
<stop offset="1" stop-color="white"/>
</linearGradient>
</defs>
</svg>